<svg width="19" height="16" viewBox="0 0 19 16" fill="none" xmlns="http://www.w3.org/2000/svg">
<path d="M18.3104 8.53068L11.5604 15.2807C11.4197 15.4214 11.2288 15.5005 11.0298 15.5005C10.8308 15.5005 10.6399 15.4214 10.4992 15.2807C10.3584 15.1399 10.2794 14.9491 10.2794 14.7501C10.2794 14.551 10.3584 14.3602 10.4992 14.2194L15.9695 8.75005H1.27979C1.08087 8.75005 0.890107 8.67103 0.749455 8.53038C0.608803 8.38973 0.529785 8.19896 0.529785 8.00005C0.529785 7.80114 0.608803 7.61037 0.749455 7.46972C0.890107 7.32907 1.08087 7.25005 1.27979 7.25005H15.9695L10.4992 1.78068C10.3584 1.63995 10.2794 1.44907 10.2794 1.25005C10.2794 1.05103 10.3584 0.860156 10.4992 0.719426C10.6399 0.578695 10.8308 0.499634 11.0298 0.499634C11.2288 0.499634 11.4197 0.578695 11.5604 0.719426L18.3104 7.46943C18.3801 7.53908 18.4355 7.6218 18.4732 7.71285C18.5109 7.80389 18.5304 7.90149 18.5304 8.00005C18.5304 8.09861 18.5109 8.19621 18.4732 8.28726C18.4355 8.3783 18.3801 8.46102 18.3104 8.53068Z" fill="#CBFF72"/>
</svg>
