<svg width="30" height="30" viewBox="0 0 30 30" fill="none" xmlns="http://www.w3.org/2000/svg">
<path d="M15.3836 5.74467C18.6791 5.74467 21.9745 5.74423 25.27 5.74481C26.8707 5.74511 27.9089 6.78152 27.9095 8.38579C27.9111 12.3918 27.911 16.398 27.9096 20.4041C27.9091 22.0224 26.8707 23.06 25.2508 23.0601C18.679 23.0612 12.1074 23.0612 5.53557 23.0603C3.91194 23.0601 2.86805 22.0248 2.86746 20.4136C2.86614 16.3883 2.86526 12.3632 2.86805 8.33798C2.86893 6.98376 3.68946 5.99134 4.98238 5.77488C5.16027 5.74511 5.34477 5.74599 5.52618 5.74584C8.812 5.74423 12.0978 5.74467 15.3836 5.74467ZM11.4883 13.8877C9.14945 16.5473 6.82628 19.1892 4.49226 21.8432C4.80478 22.0778 5.13974 22.1116 5.48981 22.1114C12.0899 22.1094 18.69 22.11 25.2901 22.1095C25.3954 22.1095 25.5054 22.1233 25.6051 22.0982C25.8396 22.0393 26.069 21.9605 26.3467 21.8756C23.9721 19.1754 21.6445 16.5285 19.3092 13.8732C18.1246 14.9161 16.9691 15.9342 15.8126 16.9509C15.4753 17.2475 15.3028 17.2454 14.9664 16.9492C13.8174 15.9377 12.6682 14.9262 11.4883 13.8877ZM4.84819 6.78211C8.37643 9.89077 11.8765 12.9746 15.3898 16.0702C18.9097 12.9692 22.4076 9.88769 25.9216 6.79179C25.5373 6.64953 5.32409 6.63809 4.84819 6.78211ZM10.7819 13.2646C8.53775 11.2874 6.31607 9.3301 4.01753 7.30493C3.94171 7.644 3.82879 7.91561 3.82805 8.18736C3.81676 12.3263 3.81969 16.4653 3.82248 20.6043C3.82263 20.7496 3.85636 20.8951 3.88305 21.1093C6.20534 18.4688 8.47733 15.8852 10.7819 13.2646ZM26.8399 21.0099C26.8681 21.0042 26.8961 20.9983 26.9243 20.9926C26.9356 20.7961 26.9567 20.5994 26.9567 20.4029C26.9586 16.3989 26.9581 12.3948 26.9577 8.39077C26.9577 8.2667 26.9709 8.13779 26.9432 8.01929C26.8923 7.8021 26.8154 7.59106 26.7348 7.33016C24.4634 9.33157 22.2446 11.2866 20.016 13.2502C22.3095 15.8582 24.5747 18.434 26.8399 21.0099Z" fill="#A2FF00"/>
</svg>
