<svg width="23" height="22" viewBox="0 0 23 22" fill="none" xmlns="http://www.w3.org/2000/svg">
<path d="M16.5373 13.1902C16.6371 12.5657 16.7341 11.9579 16.8363 11.3185C16.7421 11.3185 16.667 11.3185 16.5919 11.3185C15.9807 11.3184 15.3694 11.3206 14.7583 11.3176C14.4246 11.3159 14.2706 11.1668 14.2701 10.8383C14.2689 10.135 14.2438 9.42989 14.2857 8.72889C14.3326 7.94353 14.8387 7.51025 15.6185 7.50992C15.9739 7.5097 16.3292 7.50992 16.6846 7.50992C16.8118 7.50992 16.9392 7.50992 17.1033 7.50992C17.1033 7.21262 17.1033 6.92504 17.1033 6.63735C17.1033 6.3537 17.1033 6.07005 17.1033 5.75191C16.8371 5.71982 16.5807 5.6778 16.3224 5.65979C15.2722 5.58689 14.2463 5.6706 13.3109 6.21215C12.621 6.61159 12.271 7.21579 12.2746 8.02113C12.2787 8.93822 12.2759 9.85521 12.2753 10.7723C12.2751 11.1815 12.1374 11.3173 11.7222 11.3181C11.1892 11.3191 10.6562 11.3183 10.1231 11.3183C10.0471 11.3183 9.97099 11.3183 9.88335 11.3183C9.88335 11.9525 9.88335 12.5598 9.88335 13.19C10.071 13.19 10.2469 13.19 10.4227 13.19C10.8776 13.19 11.3325 13.1868 11.7873 13.1912C12.1111 13.1943 12.2746 13.358 12.2747 13.6791C12.276 15.9682 12.276 18.2574 12.2743 20.5465C12.274 20.8326 12.1101 20.9909 11.8221 20.991C10.1376 20.9914 8.45319 21.0013 6.76885 20.9878C3.92261 20.9651 1.62698 18.6663 1.61584 15.817C1.6034 12.6109 1.60318 9.40468 1.61595 6.1985C1.6273 3.34997 3.92512 1.04463 6.7707 1.03142C9.9831 1.01658 13.1957 1.01691 16.4082 1.0312C19.2563 1.04386 21.5544 3.34277 21.5677 6.19392C21.5826 9.40719 21.5834 12.6206 21.5672 15.8337C21.553 18.6728 19.2557 20.9592 16.4196 20.9895C15.8511 20.9955 15.2825 20.9924 14.7138 20.991C14.4283 20.9903 14.2568 20.8076 14.2573 20.5212C14.2618 18.2749 14.265 16.0285 14.2687 13.7822C14.2694 13.3161 14.3959 13.1904 14.8651 13.1902C15.4182 13.19 15.9715 13.1902 16.5373 13.1902ZM15.1337 20.138C15.5414 20.138 15.9377 20.1394 16.3339 20.1377C18.794 20.1274 20.7134 18.212 20.7173 15.7521C20.7222 12.5886 20.7225 9.42509 20.7171 6.26169C20.713 3.80301 18.7911 1.88533 16.3294 1.88172C13.1738 1.87714 10.0182 1.87769 6.8626 1.88162C4.38885 1.88467 2.46931 3.80345 2.46648 6.27501C2.46276 9.43142 2.46418 12.5877 2.46811 15.7441C2.46844 15.9989 2.48219 16.2577 2.52792 16.5078C2.92399 18.6687 4.68669 20.1344 6.88497 20.1377C8.32059 20.1399 9.75631 20.1382 11.1919 20.1382C11.2664 20.1382 11.3408 20.1382 11.4065 20.1382C11.4065 18.0887 11.4065 16.0734 11.4065 14.0433C10.7594 14.0433 10.1279 14.0453 9.49645 14.0424C9.17885 14.041 9.02126 13.8904 9.01962 13.5728C9.01493 12.6984 9.01526 11.824 9.0194 10.9497C9.02093 10.6251 9.18049 10.4733 9.51042 10.4666C9.73066 10.4622 9.95101 10.4656 10.1714 10.4656C10.5814 10.4656 10.9914 10.4656 11.4126 10.4656C11.4169 10.402 11.4219 10.361 11.4219 10.3199C11.4224 9.55213 11.4176 8.78434 11.4253 8.01665C11.4274 7.79051 11.4431 7.56023 11.4889 7.33944C11.6953 6.34595 12.3277 5.69493 13.2242 5.29483C14.6522 4.65757 16.1343 4.67514 17.6309 4.99754C17.8556 5.04599 17.9544 5.19912 17.9553 5.45919C17.9578 6.25536 17.9578 7.05164 17.9557 7.84781C17.9547 8.21452 17.8039 8.36186 17.4342 8.36273C16.8302 8.36415 16.2261 8.36284 15.6219 8.36328C15.2862 8.36349 15.1513 8.46729 15.1289 8.80867C15.1058 9.16163 15.1224 9.5172 15.1218 9.87158C15.1215 10.0616 15.1218 10.2517 15.1218 10.4655C15.2208 10.4655 15.2968 10.4655 15.3728 10.4655C15.9983 10.4655 16.6237 10.4628 17.2491 10.4667C17.6282 10.4691 17.7939 10.6656 17.7417 11.0371C17.7259 11.1496 17.7087 11.2619 17.691 11.3741C17.5741 12.1177 17.4586 12.8614 17.3385 13.6045C17.2866 13.926 17.1456 14.0412 16.8176 14.043C16.5262 14.0445 16.2348 14.0433 15.9434 14.0433C15.6757 14.0433 15.408 14.0433 15.1337 14.0433C15.1337 16.0867 15.1337 18.1021 15.1337 20.138Z" fill="#A2FF00"/>
</svg>
