<svg width="21" height="22" viewBox="0 0 21 22" fill="none" xmlns="http://www.w3.org/2000/svg">
<g clip-path="url(#clip0_138_65)">
<path d="M0.358398 15.8761C0.358398 12.617 0.358398 9.35786 0.358398 6.09873C0.390219 5.89113 0.409557 5.68066 0.455805 5.47643C0.949284 3.29931 2.26878 1.8993 4.41939 1.29582C4.71305 1.21346 5.02215 1.18583 5.32409 1.13293C8.58322 1.13293 11.8424 1.13293 15.1015 1.13293C15.1641 1.14398 15.2263 1.15892 15.2893 1.16537C15.8224 1.22031 16.3436 1.3387 16.8265 1.56656C18.9144 2.55198 20.0302 4.20544 20.0584 6.51567C20.0946 9.49834 20.0684 12.4817 20.0665 15.4648C20.0658 16.3993 19.8629 17.29 19.3873 18.0963C18.3219 19.9023 16.7263 20.8268 14.6304 20.8378C11.6859 20.8533 8.7412 20.8452 5.79659 20.8374C5.42661 20.8364 5.04763 20.8165 4.68829 20.7362C2.51495 20.2502 1.1223 18.9245 0.520982 16.7796C0.438718 16.4862 0.411194 16.1777 0.358398 15.8761ZM18.9124 10.987C18.9124 9.51809 18.9181 8.04921 18.908 6.58044C18.9058 6.24903 18.8852 5.90954 18.8105 5.58826C18.3461 3.59133 16.7043 2.29168 14.6574 2.28933C11.694 2.28585 8.73066 2.28555 5.76723 2.29261C5.44881 2.29332 5.12242 2.31726 4.81342 2.3893C2.81669 2.85464 1.51694 4.49582 1.51459 6.54279C1.51111 9.50622 1.51101 12.4696 1.51766 15.433C1.51838 15.7453 1.5414 16.0645 1.60831 16.3686C2.04132 18.3371 3.70685 19.6796 5.72968 19.6849C8.71869 19.6928 11.7078 19.6874 14.6968 19.6865C15.3006 19.6863 15.8876 19.5824 16.4314 19.3181C18.0493 18.5317 18.8834 17.2285 18.9082 15.432C18.9287 13.9505 18.9124 12.4686 18.9124 10.987Z" fill="#A2FF00"/>
<path d="M15.6013 10.9855C15.6035 13.9454 13.1768 16.3737 10.2145 16.3759C7.25468 16.3781 4.82637 13.9514 4.82422 10.9891C4.82197 8.02938 7.24864 5.60097 10.2109 5.59882C13.1708 5.59667 15.5991 8.02334 15.6013 10.9855ZM10.1978 15.2204C12.5201 15.2347 14.4359 13.3302 14.4457 10.9977C14.4555 8.68043 12.5687 6.77803 10.2375 6.7546C7.91842 6.73137 5.99883 8.6307 5.9798 10.9676C5.96097 13.2881 7.86316 15.206 10.1978 15.2204Z" fill="#A2FF00"/>
<path d="M15.7319 6.86795C14.8646 6.86959 14.1403 6.1462 14.1396 5.27762C14.139 4.4115 14.8646 3.68443 15.73 3.68402C16.5938 3.68361 17.322 4.41079 17.3237 5.27568C17.3253 6.13945 16.5988 6.86621 15.7319 6.86795ZM15.7262 5.71084C15.9547 5.7138 16.157 5.51694 16.1631 5.28581C16.169 5.05702 15.9763 4.85403 15.7443 4.84471C15.509 4.8353 15.2959 5.04117 15.2965 5.27752C15.2969 5.5063 15.4969 5.70787 15.7262 5.71084Z" fill="#A2FF00"/>
</g>
<defs>
<clipPath id="clip0_138_65">
<rect width="20.4636" height="20.4636" fill="white" transform="translate(0 0.774841)"/>
</clipPath>
</defs>
</svg>
