<svg width="23" height="22" viewBox="0 0 23 22" fill="none" xmlns="http://www.w3.org/2000/svg">
<path d="M1.90016 11.0093C1.90016 9.44574 1.89929 7.8821 1.90038 6.31858C1.90235 3.65351 3.69474 1.52573 6.31768 1.08492C6.59631 1.0381 6.88345 1.02653 7.16678 1.0262C10.3075 1.02227 13.4482 1.02151 16.5889 1.02435C19.2333 1.02675 21.3621 2.83398 21.7958 5.44721C21.841 5.71907 21.8536 5.99902 21.8541 6.27525C21.858 9.42369 21.859 12.5722 21.8558 15.7207C21.8531 18.3607 20.0357 20.4979 17.4281 20.9244C17.1423 20.9711 16.848 20.9815 16.5577 20.9818C13.4382 20.9858 10.3189 20.9854 7.19952 20.9839C4.53216 20.9826 2.41214 19.1987 1.96281 16.5704C1.91403 16.285 1.90398 15.9905 1.903 15.7001C1.89722 14.1364 1.90016 12.5729 1.90016 11.0093ZM21.0036 11.0009C21.0036 9.43701 21.0062 7.87326 21.0011 6.30941C21.0003 6.04736 20.9892 5.7815 20.9443 5.52415C20.5685 3.37171 18.7917 1.87967 16.6032 1.87738C13.4549 1.87421 10.3067 1.87531 7.15838 1.87902C6.90365 1.87934 6.64488 1.89179 6.39473 1.93621C4.24076 2.31863 2.75538 4.09312 2.75363 6.28311C2.75112 9.43199 2.75167 12.581 2.75549 15.7299C2.75581 15.9847 2.7688 16.2435 2.81377 16.4936C3.20121 18.6502 4.97047 20.1286 7.16416 20.1306C10.3053 20.1334 13.4464 20.1329 16.5876 20.1285C16.8563 20.1282 17.1294 20.1127 17.3928 20.063C19.5588 19.6541 21.0017 17.9028 21.0034 15.6923C21.0046 14.1285 21.0036 12.5647 21.0036 11.0009Z" fill="#A2FF00"/>
<path d="M15.1193 12.3949C14.6941 11.5934 14.1141 11.5386 13.3121 11.9042C13.0449 12.026 12.8968 12.2179 12.8983 12.5342C12.906 14.1404 12.9021 15.7466 12.9017 17.3528C12.9016 17.7731 12.7606 17.9129 12.3378 17.9133C11.7906 17.9137 11.2435 17.9162 10.6964 17.9126C9.90024 17.9074 9.32213 17.3347 9.32115 16.5405C9.3182 13.982 9.31951 11.4234 9.32049 8.86475C9.3206 8.51616 9.47929 8.36064 9.83192 8.35998C10.6349 8.35846 11.4378 8.35955 12.2407 8.35955C12.7876 8.35955 12.8779 8.44479 12.9118 9.01155C12.9581 8.98939 13.0007 8.97455 13.0373 8.95065C15.2894 7.48229 18.1765 8.71098 18.6763 11.3523C18.6934 11.4422 18.7001 11.5354 18.7001 11.6271C18.7014 13.5389 18.7013 15.4507 18.701 17.3625C18.7009 17.771 18.5584 17.9129 18.1486 17.9131C17.3244 17.9137 16.5001 17.9137 15.6759 17.9131C15.2645 17.9129 15.1196 17.771 15.1195 17.367C15.1189 15.7608 15.1193 14.1546 15.1193 12.5484C15.1193 12.4938 15.1193 12.4469 15.1193 12.3949ZM17.8419 17.0508C17.8446 16.9912 17.8481 16.9496 17.8481 16.908C17.8484 15.1523 17.8484 13.3965 17.8479 11.6409C17.8479 11.5844 17.8469 11.5263 17.8352 11.4713C17.6158 10.4404 17.0272 9.70698 16.034 9.34715C15.0411 8.98753 14.1184 9.16816 13.2933 9.82692C13.1214 9.96422 12.9628 10.1182 12.7981 10.2645C12.6549 10.3917 12.4963 10.4525 12.3096 10.3686C12.1176 10.2824 12.0451 10.1254 12.0483 9.92166C12.0519 9.68995 12.0492 9.45814 12.0492 9.22895C11.4083 9.22895 10.7949 9.22895 10.1729 9.22895C10.1729 9.31593 10.1729 9.38655 10.1729 9.45727C10.1729 11.7816 10.1729 14.1059 10.173 16.4303C10.173 16.4942 10.1698 16.5587 10.1771 16.622C10.2036 16.8536 10.3758 17.0458 10.6074 17.0526C11.081 17.0664 11.5552 17.0567 12.0491 17.0567C12.0491 16.9629 12.0491 16.8866 12.0491 16.8103C12.0491 15.3816 12.0536 13.9528 12.047 12.5241C12.0441 11.8749 12.3434 11.4105 12.9165 11.1551C13.6849 10.8128 14.483 10.8182 15.2557 11.1443C15.7326 11.3456 15.9787 11.7287 15.9754 12.2715C15.9659 13.7855 15.9721 15.2996 15.9721 16.8136C15.9721 16.8895 15.9721 16.9656 15.9721 17.0508C16.6028 17.0508 17.2111 17.0508 17.8419 17.0508Z" fill="#A2FF00"/>
<path d="M5.05588 13.1127C5.05588 11.7134 5.05566 10.3141 5.05599 8.91486C5.0561 8.50395 5.19765 8.36011 5.60256 8.35978C6.44053 8.35912 7.2785 8.3588 8.11647 8.36C8.48154 8.36054 8.63717 8.51421 8.63728 8.87677C8.63804 11.718 8.63804 14.5592 8.63717 17.4003C8.63706 17.7612 8.48066 17.9125 8.11188 17.913C7.26682 17.9141 6.42175 17.9142 5.57669 17.913C5.21217 17.9125 5.05642 17.7582 5.05621 17.3958C5.05522 15.9681 5.05588 14.5404 5.05588 13.1127ZM5.92364 9.2222C5.92364 11.843 5.92364 14.4459 5.92364 17.043C6.55207 17.043 7.16532 17.043 7.77366 17.043C7.77366 14.4276 7.77366 11.8296 7.77366 9.2222C7.15429 9.2222 6.54617 9.2222 5.92364 9.2222Z" fill="#A2FF00"/>
<path d="M6.8377 7.67657C5.85326 7.67264 5.05283 6.86359 5.05665 5.87643C5.06047 4.8921 5.86963 4.09124 6.85636 4.09517C7.84145 4.0991 8.64111 4.90749 8.63718 5.89509C8.63314 6.88007 7.82464 7.6805 6.8377 7.67657ZM6.86127 4.94798C6.34646 4.941 5.91874 5.35332 5.90958 5.86562C5.9003 6.38076 6.31012 6.81098 6.82165 6.82321C7.34454 6.83576 7.77978 6.4159 7.78426 5.89465C7.78862 5.38039 7.3739 4.95497 6.86127 4.94798Z" fill="#A2FF00"/>
</svg>
