<svg width="22" height="22" viewBox="0 0 22 22" fill="none" xmlns="http://www.w3.org/2000/svg">
<g clip-path="url(#clip0_138_81)">
<path d="M7.86472 21.6731C7.42435 21.5892 6.97699 21.5318 6.5448 21.4172C3.86772 20.7068 1.83053 18.3165 1.54906 15.5748C1.19131 12.0908 3.50822 8.90709 6.94326 8.17193C7.94571 7.95737 8.9512 7.98029 9.96871 8.18077C9.96871 9.74441 9.96871 11.3075 9.96871 12.8911C9.69062 12.8003 9.41799 12.7061 9.14231 12.6221C7.87826 12.2365 6.57437 12.9026 6.19064 14.1506C5.91648 15.0422 6.11435 15.8474 6.7789 16.4997C7.46113 17.1692 8.29211 17.3609 9.19524 17.0455C10.0711 16.7397 10.5891 16.0988 10.738 15.1764C10.7643 15.0132 10.7698 14.8454 10.7699 14.6797C10.7724 10.0084 10.773 5.33716 10.7739 0.665894C10.7739 0.5776 10.7739 0.489307 10.7739 0.391846C12.2825 0.391846 13.77 0.391846 15.297 0.391846C15.297 0.612307 15.2875 0.832113 15.2985 1.05083C15.3926 2.93064 16.3063 4.25973 18.0079 5.04794C18.5299 5.28979 19.09 5.38059 19.6627 5.40253C19.9519 5.41366 20.2407 5.43396 20.5383 5.45055C20.5383 6.93724 20.5383 8.40462 20.5383 9.88716C18.6957 10.0065 16.9533 9.66157 15.3024 8.72429C15.3024 8.83954 15.3023 8.91866 15.3024 8.99779C15.3052 10.9175 15.3092 12.8373 15.3103 14.7572C15.3123 18.1785 12.9268 21.0076 9.55824 21.5802C9.3548 21.6148 9.15006 21.6424 8.94597 21.6733C8.58548 21.6731 8.2251 21.6731 7.86472 21.6731ZM8.7243 9.24335C8.27149 9.28275 7.82838 9.29061 7.39641 9.36395C4.47465 9.86031 2.44368 12.587 2.79849 15.5188C3.18648 18.7255 6.32444 20.9603 9.50039 20.3284C12.0757 19.816 14.1078 17.5406 14.0699 14.7046C14.0337 11.9953 14.0542 9.28537 14.0499 6.57567C14.0497 6.49665 14.0499 6.41752 14.0499 6.29136C14.8611 6.90985 15.6022 7.53642 16.4933 7.94034C17.3822 8.34328 18.306 8.59397 19.285 8.64079C19.285 7.95878 19.285 7.29751 19.285 6.63777C16.5905 6.40639 14.3844 4.30852 14.0688 1.64596C13.3889 1.64596 12.7085 1.64596 12.021 1.64596C12.021 1.75259 12.021 1.84252 12.021 1.93245C12.0201 6.18058 12.0199 10.4287 12.0162 14.6768C12.0159 14.9255 12.0083 15.178 11.9661 15.4221C11.6105 17.4749 9.69029 18.7717 7.64972 18.3452C5.9752 17.9952 4.78777 16.4669 4.83088 14.7173C4.87202 13.0471 6.16477 11.5702 7.81834 11.3175C8.11574 11.2721 8.4197 11.2693 8.7242 11.2465C8.7243 10.5962 8.7243 9.94795 8.7243 9.24335Z" fill="#A2FF00"/>
</g>
<defs>
<clipPath id="clip0_138_81">
<rect width="21.8278" height="21.8278" fill="white" transform="translate(0.00683594 0.0927124)"/>
</clipPath>
</defs>
</svg>
