<svg width="23" height="22" viewBox="0 0 23 22" fill="none" xmlns="http://www.w3.org/2000/svg">
<g clip-path="url(#clip0_138_83)">
<path d="M20.8301 0.552185C19.7157 1.85039 18.6018 3.14926 17.4865 4.44681C16.1143 6.04319 14.7408 7.63848 13.3679 9.23442C13.3282 9.28058 13.2901 9.32806 13.2375 9.39136C15.9834 13.3878 18.7299 17.385 21.492 21.405C21.4179 21.4115 21.3681 21.4197 21.3184 21.4197C19.41 21.4203 17.5014 21.4186 15.593 21.4237C15.4587 21.424 15.3888 21.376 15.3165 21.2705C13.5471 18.6897 11.7742 16.1114 10.0017 13.5327C9.95655 13.4669 9.9093 13.4024 9.85244 13.3224C9.33337 13.9252 8.82838 14.511 8.32416 15.0973C6.54836 17.1616 4.77365 19.2269 2.99315 21.2872C2.93291 21.3569 2.81591 21.4123 2.72402 21.4143C2.19535 21.4263 1.66624 21.4201 1.08398 21.4201C3.75582 18.3142 6.39993 15.2404 9.05081 12.1589C9.01185 12.0984 8.97747 12.0422 8.94014 11.988C6.37668 8.25653 3.8129 4.52517 1.24977 0.793273C1.19662 0.715894 1.15187 0.632621 1.10319 0.552185C3.1275 0.552185 5.15182 0.552185 7.17613 0.552185C7.19217 0.581762 7.20549 0.613194 7.22448 0.640697C8.93447 3.13005 10.6448 5.61908 12.3547 8.10843C12.3801 8.14543 12.3992 8.1869 12.426 8.23503C14.6528 5.64712 16.8448 3.09971 19.0367 0.552185C19.6346 0.552185 20.2323 0.552185 20.8301 0.552185ZM19.0213 20.1114C18.9571 20.0163 18.9167 19.9543 18.8743 19.8937C17.7741 18.3195 16.6735 16.7455 15.5731 15.1714C12.5323 10.8218 9.49042 6.47309 6.45472 2.11997C6.33947 1.95473 6.22214 1.89689 6.02482 1.89994C5.27121 1.91162 4.51739 1.90442 3.76368 1.90518C3.69994 1.90529 3.6362 1.91195 3.55042 1.91686C3.59735 1.98998 3.6278 2.04128 3.66196 2.09017C7.82998 8.05309 11.9985 14.0156 16.1642 19.9801C16.239 20.0873 16.3163 20.1277 16.4467 20.1267C17.2344 20.1205 18.022 20.1239 18.8098 20.1232C18.8683 20.123 18.9268 20.1168 19.0213 20.1114Z" fill="#A2FF00"/>
</g>
<defs>
<clipPath id="clip0_138_83">
<rect width="21.8278" height="21.8278" fill="white" transform="translate(0.337891 0.0927124)"/>
</clipPath>
</defs>
</svg>
