<svg width="25" height="25" viewBox="0 0 25 25" fill="none" xmlns="http://www.w3.org/2000/svg">
<g clip-path="url(#clip0_138_74)">
<path d="M0.447266 8.38159C0.491672 8.17364 0.529632 7.96415 0.581558 7.75811C1.12828 5.58795 2.94056 4.15574 5.17913 4.15216C9.86658 4.14464 14.5542 4.14512 19.2416 4.15192C21.5136 4.15514 23.3498 5.62149 23.8659 7.83988C23.9466 8.18701 23.9751 8.55312 23.9765 8.91064C23.9855 11.4999 23.9855 14.0893 23.9799 16.6786C23.9754 18.7691 22.7687 20.4987 20.7946 21.1789C20.3121 21.3451 19.7766 21.4266 19.265 21.4286C14.5623 21.4471 9.85942 21.4467 5.15657 21.4363C2.75733 21.4311 0.821255 19.7228 0.491313 17.3592C0.484151 17.3079 0.462306 17.2587 0.447266 17.2086C0.447266 14.2661 0.447266 11.3238 0.447266 8.38159ZM12.1897 20.4776C14.5102 20.4776 16.8308 20.4804 19.1514 20.4741C19.4556 20.4733 19.7671 20.458 20.063 20.3934C21.8081 20.0124 23.0057 18.5448 23.0144 16.7549C23.0271 14.1122 23.0198 11.4695 23.0142 8.82684C23.0137 8.57616 22.9881 8.32047 22.9346 8.07576C22.5442 6.2914 21.0675 5.11488 19.2121 5.11357C14.5481 5.11023 9.88389 5.11095 5.21983 5.11596C4.93095 5.11632 4.63539 5.13649 4.35451 5.19916C2.61731 5.58616 1.42384 7.04571 1.41453 8.82362C1.40068 11.4739 1.40904 14.1243 1.41441 16.7747C1.41489 17.0178 1.43948 17.2658 1.49069 17.5033C1.87625 19.288 3.35478 20.4724 5.20491 20.4764C7.53324 20.4814 9.86145 20.4776 12.1897 20.4776Z" fill="#A2FF00"/>
<path d="M9.09108 13.0491C9.09108 11.7933 9.09048 10.5375 9.09132 9.2816C9.09179 8.71077 9.44394 8.50677 9.93539 8.79433C12.074 10.0462 14.2122 11.299 16.3498 12.5525C16.8289 12.8335 16.8318 13.2377 16.3563 13.5163C14.2184 14.7694 12.0799 16.0215 9.941 17.2729C9.45146 17.5594 9.09179 17.3561 9.09132 16.7934C9.09036 15.5454 9.09108 14.2972 9.09108 13.0491ZM15.2766 13.0364C13.5248 12.0097 11.8071 11.0032 10.0694 9.98494C10.0694 12.027 10.0694 14.0384 10.0694 16.0846C11.8094 15.0661 13.5222 14.0634 15.2766 13.0364Z" fill="#A2FF00"/>
</g>
<defs>
<clipPath id="clip0_138_74">
<rect width="23.8742" height="23.8742" fill="white" transform="translate(0.297852 0.728455)"/>
</clipPath>
</defs>
</svg>
